<svg width="270" height="76" viewBox="0 0 270 76" fill="none" xmlns="http://www.w3.org/2000/svg">
<path d="M270 76H52.5907V50.7384L45.0875 45.1247V76H20.5328V42.006L15.3576 46.0603V75.9439H0V73.714H13.1259V44.9844L20.5203 39.1898V29.7027L24.993 26.1941V12.241L40.6148 0V13.9563L45.0907 10.4477V42.3615L54.8131 49.6312V73.7701H270V76ZM31.5109 73.7701H42.8652V43.478L38.3925 40.1316V18.5189L27.203 27.2825V33.9441L31.5109 30.5915V73.7701ZM27.2154 73.7701H29.2917V35.1417L27.2154 36.7728V73.7701ZM22.7427 73.7701H24.993V38.5286L22.7427 40.2938V73.7701ZM40.6148 39.012L42.8683 40.6992V15.0135L40.6148 16.7787V39.012ZM22.7427 30.7848V37.4527L24.993 35.6875V29.0321L22.7427 30.7848ZM27.2154 13.32V24.4445L38.4049 15.6809V4.56892L27.2154 13.32Z" fill="white"/>
<path d="M68.0105 45.9636V65.6895H63.1307V41.0797H78.7276V45.9636H68.0105Z" fill="white"/>
<path d="M91.1262 65.6895L89.4789 60.6653H82.0907L80.4433 65.6895H75.3055L83.8655 41.0797H87.7041L96.2516 65.6895H91.1262ZM87.1322 53.2396L85.8298 48.3682H85.7055L84.4405 53.1741L83.6199 56.0714H87.9714L87.1322 53.2396Z" fill="white"/>
<path d="M110.692 52.8747C111.305 53.0569 111.861 53.3904 112.312 53.8446C112.725 54.2642 113.068 54.7475 113.328 55.2761C113.576 55.7791 113.751 56.3146 113.85 56.8667C113.941 57.3553 113.989 57.851 113.993 58.3481C114.023 59.5177 113.778 60.6779 113.278 61.735C112.825 62.646 112.174 63.4433 111.373 64.0678C110.563 64.687 109.643 65.1472 108.663 65.4244C107.652 65.7146 106.606 65.8615 105.554 65.861C103.64 65.9133 101.757 65.3685 100.165 64.3017C98.6557 63.2492 97.54 61.7214 96.9945 59.9604L101.464 57.874C101.771 58.6762 102.298 59.3747 102.984 59.8887C103.712 60.475 104.621 60.7873 105.554 60.7713C106.441 60.8001 107.311 60.5288 108.025 60.001C108.36 59.7487 108.628 59.4176 108.806 59.0369C108.983 58.6562 109.064 58.2375 109.042 57.8179C109.065 57.4439 109.001 57.0696 108.854 56.7248C108.708 56.38 108.484 56.0741 108.2 55.8313C107.62 55.3692 106.897 55.1273 106.157 55.1483H103.36V50.6261H106.341C107.024 50.6457 107.689 50.4076 108.206 49.9587C108.452 49.7509 108.648 49.4903 108.78 49.196C108.912 48.9018 108.976 48.5815 108.967 48.259C108.981 47.8716 108.896 47.4871 108.719 47.1425C108.551 46.8595 108.329 46.6125 108.066 46.4159C107.782 46.2257 107.466 46.0884 107.133 46.0104C106.776 45.932 106.411 45.8923 106.046 45.8919C105.124 45.8627 104.219 46.1438 103.475 46.6903C102.806 47.1824 102.281 47.8459 101.955 48.6114L97.8057 46.1352C98.4743 44.5896 99.5486 43.2551 100.914 42.2742C102.275 41.2949 104.003 40.8042 106.098 40.8022C107.122 40.7945 108.143 40.931 109.129 41.2076C110.022 41.4568 110.859 41.8737 111.597 42.4364C112.312 42.9958 112.885 43.7186 113.266 44.5446C113.851 45.8924 114.016 47.3863 113.738 48.8297C113.648 49.3137 113.489 49.7821 113.266 50.2207C113.015 50.7225 112.688 51.1822 112.296 51.5836C111.829 52.0576 111.275 52.4357 110.664 52.6969L110.692 52.8747Z" fill="white"/>
<path d="M133.398 59.7109C132.935 61.5098 131.897 63.1063 130.442 64.2549C129.014 65.3485 127.264 65.8943 125.192 65.8922C123.902 65.9287 122.618 65.6884 121.428 65.1874C120.402 64.7468 119.494 64.0706 118.777 63.2133C118.048 62.3189 117.512 61.2824 117.204 60.1694C116.845 58.906 116.67 57.5971 116.685 56.2835V50.4889C116.678 49.2567 116.853 48.0302 117.204 46.8494C117.522 45.7356 118.057 44.6959 118.777 43.7899C119.489 42.895 120.396 42.1758 121.428 41.6879C122.602 41.1413 123.886 40.8724 125.18 40.902C127.293 40.902 129.055 41.4727 130.464 42.6141C131.888 43.7893 132.915 45.3792 133.401 47.1644L128.77 49.0044C128.615 48.1835 128.205 47.4332 127.598 46.8618C127.038 46.4088 126.365 46.1199 125.652 46.0269C124.938 45.9338 124.214 46.0404 123.557 46.3348C123.123 46.5461 122.745 46.8557 122.451 47.2392C122.146 47.6207 121.919 48.0582 121.782 48.5272C121.633 49.0013 121.557 49.4958 121.559 49.993V56.6702C121.555 57.1983 121.63 57.724 121.782 58.2296C121.921 58.7034 122.148 59.1467 122.451 59.5363C122.768 59.9461 123.177 60.275 123.645 60.4961C124.112 60.7173 124.625 60.8244 125.142 60.8087C126.032 60.8476 126.902 60.5366 127.567 59.9417C128.197 59.3576 128.616 58.5797 128.757 57.7306L133.398 59.7109Z" fill="white"/>
<path d="M145.445 45.9636V65.6895H140.562V45.9636H134.542V41.0797H151.472V45.9636H145.445Z" fill="white"/>
<path d="M170.97 48.9919C170.981 50.0466 170.776 51.0924 170.367 52.0639C169.99 52.9751 169.438 53.8026 168.741 54.4984C168.044 55.1943 167.217 55.7448 166.307 56.1182C165.363 56.509 164.351 56.7072 163.33 56.7014H159.019V65.6802H154.139V41.0797H163.236C164.317 41.0675 165.39 41.2535 166.404 41.6286C167.322 41.9725 168.156 42.5095 168.85 43.2036C169.535 43.9179 170.064 44.7676 170.404 45.6986C170.789 46.753 170.981 47.8688 170.97 48.9919ZM166.025 48.8797C166.025 47.89 165.759 47.156 165.229 46.6778C164.704 46.1913 163.951 45.9512 162.982 45.9512H159.019V51.83H163.106C163.869 51.8422 164.608 51.5572 165.167 51.0347C165.455 50.7606 165.681 50.4273 165.829 50.0575C165.977 49.6877 166.044 49.2902 166.025 48.8921V48.8797Z" fill="white"/>
<path d="M181.056 40.902C182.292 40.8862 183.518 41.1339 184.652 41.6286C185.693 42.0948 186.624 42.776 187.384 43.6277C188.156 44.5166 188.742 45.5515 189.109 46.6716C189.521 47.9013 189.725 49.1916 189.712 50.4889V56.2835C189.729 57.6356 189.519 58.9809 189.09 60.263C188.717 61.3823 188.125 62.4159 187.35 63.3037C186.595 64.1408 185.662 64.7972 184.621 65.2248C183.489 65.6869 182.275 65.914 181.053 65.8922C179.757 65.9256 178.471 65.6633 177.292 65.125C176.258 64.6319 175.348 63.9126 174.628 63.0199C173.908 62.1059 173.372 61.0605 173.049 59.9417C172.693 58.7553 172.515 57.5224 172.521 56.2835V50.4889C172.513 49.256 172.692 48.029 173.049 46.8494C173.371 45.7358 173.907 44.6963 174.628 43.7899C175.345 42.8955 176.256 42.1767 177.292 41.6879C178.47 41.1412 179.758 40.8724 181.056 40.902ZM181.009 45.9979C180.459 45.9816 179.912 46.097 179.415 46.3348C178.979 46.5458 178.598 46.8554 178.302 47.2392C177.997 47.621 177.769 48.0584 177.631 48.5272C177.485 49.0022 177.411 49.4962 177.41 49.993V56.6702C177.408 57.1979 177.483 57.7231 177.631 58.2296C177.772 58.703 178 59.1461 178.302 59.5363C178.622 59.9468 179.034 60.2759 179.504 60.497C179.974 60.718 180.49 60.8248 181.009 60.8087C182.199 60.8087 183.117 60.4147 183.763 59.6267C184.428 58.789 184.772 57.7403 184.733 56.6702V49.993C184.754 48.9712 184.41 47.9754 183.763 47.1862C183.117 46.394 182.199 45.9979 181.009 45.9979Z" fill="white"/>
<path d="M193.262 65.6895V41.0797H198.148V56.4955H198.241L202.773 48.6114L207.404 41.0797H211.445V65.6895H206.549V50.8008H206.456L203.22 56.639L197.607 65.6833L193.262 65.6895Z" fill="white"/>
<path d="M224.689 45.9636V65.6895H219.803V45.9636H213.779V41.0797H230.712V45.9636H224.689Z" fill="white"/>
<path d="M233.376 65.6895V41.0797H248.976V45.9636H238.259V50.9536H247.394V55.6566H238.259V60.815H248.976V65.6958L233.376 65.6895Z" fill="white"/>
<path d="M264.007 65.6895L259.6 57.6994L255.224 65.6895H249.71L257.188 53.0993L250.108 41.0797H255.656L259.588 48.4711L263.55 41.0797H269.099L262.027 53.0993L269.543 65.6895H264.007Z" fill="white"/>
<path d="M204.482 41.1452H200.641V47.445L204.482 41.1452Z" fill="white"/>
</svg>
