<svg width="24" height="17" viewBox="0 0 24 17" fill="none" xmlns="http://www.w3.org/2000/svg">
<path d="M15.4606 8.13702L23.3235 13.1078V2.9563L15.4606 8.13702Z" fill="white"/>
<path d="M0 2.9563V13.1078L7.86292 8.13702L0 2.9563Z" fill="white"/>
<path d="M21.8657 0H1.45769C0.730286 0 0.15303 0.542271 0.0437012 1.24052L11.6617 8.89499L23.2797 1.24052C23.1704 0.542271 22.5931 0 21.8657 0Z" fill="white"/>
<path d="M14.1253 9.01757L12.0626 10.3762C11.9401 10.4563 11.8017 10.4957 11.6617 10.4957C11.5218 10.4957 11.3833 10.4563 11.2608 10.3762L9.19817 9.01611L0.0466309 14.8047C0.158875 15.4971 0.733215 16.035 1.4577 16.035H21.8657C22.5902 16.035 23.1646 15.4971 23.2768 14.8047L14.1253 9.01757Z" fill="white"/>
</svg>
