<svg width="36" height="49" viewBox="0 0 36 49" fill="none" xmlns="http://www.w3.org/2000/svg">
<path d="M17.7531 0C7.96407 0 0 7.41822 0 16.5365C0 20.2006 2.31595 25.7731 7.28846 34.0733C10.6816 39.7368 14.0591 44.5205 14.2016 44.7221L16.6428 48.1688C16.8889 48.5164 17.306 48.7255 17.7531 48.7255C18.2002 48.7255 18.6173 48.5164 18.8634 48.1688L21.3045 44.7223C21.4456 44.523 24.7985 39.7806 28.2177 34.0733C33.1903 25.7735 35.5062 20.201 35.5062 16.5365C35.5062 7.41822 27.5421 0 17.7531 0ZM25.8948 32.8657C22.5231 38.4933 19.2232 43.1612 19.0841 43.3574L17.7531 45.2366L16.4225 43.3579C16.2827 43.1601 12.9574 38.4504 9.61143 32.8657C4.99901 25.1665 2.66029 19.6725 2.66029 16.5365C2.66029 8.78459 9.43085 2.47799 17.7531 2.47799C26.0754 2.47799 32.8459 8.78459 32.8459 16.5365C32.8459 19.6729 30.5072 25.1667 25.8948 32.8657Z" fill="white"/>
<path d="M17.7534 7.26465C12.3258 7.26465 7.91028 11.3777 7.91028 16.4332C7.91028 21.4887 12.3258 25.6018 17.7534 25.6018C23.1809 25.6018 27.5965 21.4887 27.5965 16.4332C27.5965 11.3777 23.1809 7.26465 17.7534 7.26465ZM17.7534 23.1238C13.7927 23.1238 10.5706 20.1225 10.5706 16.4332C10.5706 12.744 13.7927 9.74264 17.7534 9.74264C21.7141 9.74264 24.9362 12.744 24.9362 16.4332C24.9362 20.1225 21.7141 23.1238 17.7534 23.1238Z" fill="white"/>
</svg>
