<svg width="17" height="17" viewBox="0 0 17 17" fill="none" xmlns="http://www.w3.org/2000/svg">
<path d="M6.64097 9.39675C5.11042 7.8662 4.76483 6.33565 4.68686 5.72243C4.66508 5.55288 4.72342 5.38284 4.84473 5.26238L6.08332 4.02434C6.26552 3.84226 6.29785 3.55848 6.16129 3.34008L4.18921 0.277871C4.03813 0.0360269 3.7279 -0.0512571 3.47287 0.0763231L0.306993 1.56734C0.100761 1.66889 -0.0205414 1.888 0.00287393 2.11669C0.168757 3.69258 0.85579 7.5665 4.66281 11.3738C8.46983 15.1811 12.3432 15.8679 13.9199 16.0337C14.1486 16.0571 14.3677 15.9358 14.4693 15.7296L15.9603 12.5637C16.0874 12.3093 16.0007 11.9999 15.7598 11.8485L12.6976 9.87698C12.4794 9.74027 12.1956 9.77237 12.0134 9.95439L10.7753 11.193C10.6549 11.3143 10.4848 11.3726 10.3153 11.3509C9.70206 11.2729 8.17151 10.9273 6.64097 9.39675Z" fill="white"/>
<path d="M12.7188 8.57056C12.4134 8.57056 12.1658 8.323 12.1658 8.01762C12.1633 5.72832 10.3081 3.87313 8.01876 3.87054C7.71338 3.87054 7.46582 3.62298 7.46582 3.31759C7.46582 3.01221 7.71338 2.76465 8.01876 2.76465C10.9186 2.76785 13.2685 5.11781 13.2717 8.01762C13.2717 8.323 13.0242 8.57056 12.7188 8.57056Z" fill="white"/>
<path d="M15.4835 8.57063C15.1781 8.57063 14.9306 8.32307 14.9306 8.01769C14.9263 4.20217 11.8343 1.11015 8.01876 1.10589C7.71338 1.10589 7.46582 0.858327 7.46582 0.552944C7.46582 0.247561 7.71338 0 8.01876 0C12.4448 0.00487582 16.0316 3.59166 16.0365 8.01769C16.0365 8.16434 15.9782 8.30498 15.8745 8.40868C15.7708 8.51238 15.6302 8.57063 15.4835 8.57063Z" fill="white"/>
</svg>
